<svg width="110" height="45" viewBox="0 0 110 45" fill="none" xmlns="http://www.w3.org/2000/svg">
<g clip-path="url(#clip0_101_2)">
<path d="M33.4944 5.72205e-06L31.8893 7.11765H11.7955L7.66377 24.5559H20.5642L21.8127 19.3066H14.6788L16.2542 12.2779H51.1508L49.5457 19.277L29.4222 19.2176L28.0845 24.5559H44.4331L42.6496 31.7328H26.3011L25.1715 36.8931H45.1762L43.4819 44.0108H24.2204C19.94 44.0108 16.7892 39.9774 17.8593 35.8255L18.9294 31.6439H7.15845C2.84839 31.6439 -0.302417 27.6402 0.708218 23.4586L5.19663 4.7451C5.88029 1.95736 8.37716 5.72205e-06 11.2307 5.72205e-06H33.4944Z" fill="url(#paint0_linear_101_2)"/>
<path d="M59.1167 19.2176L57.7791 24.5559H74.1277L72.3442 31.7328H55.9957L54.8661 36.8931H74.8708L73.1765 44.0108H53.9447C49.6643 44.0108 46.5135 39.9774 47.5836 35.8255L48.6537 31.6439L50.4372 24.0517V23.9924L51.5027 19.277H44.4923L45.9785 12.2779H80.8751L83.1639 15.5995L79.8645 19.277L59.1167 19.2176Z" fill="url(#paint1_linear_101_2)"/>
<path d="M86.6121 15.6588L76.1194 0H88.1281L92.8246 7.77009L97.4913 0H109.262L98.8289 15.5995L109.5 31.6142H97.5508L92.6462 23.4882L87.6525 31.6142H75.941L86.6121 15.6588Z" fill="url(#paint2_linear_101_2)"/>
</g>
<defs>
<linearGradient id="paint0_linear_101_2" x1="25.8346" y1="5.72205e-06" x2="25.8346" y2="44.0108" gradientUnits="userSpaceOnUse">
<stop stop-color="#0088CC"/>
<stop offset="1" stop-color="#006293"/>
</linearGradient>
<linearGradient id="paint1_linear_101_2" x1="63.8281" y1="12.2779" x2="63.8281" y2="44.0108" gradientUnits="userSpaceOnUse">
<stop stop-color="#0088CC"/>
<stop offset="1" stop-color="#006293"/>
</linearGradient>
<linearGradient id="paint2_linear_101_2" x1="92.7205" y1="0" x2="92.7205" y2="31.6142" gradientUnits="userSpaceOnUse">
<stop stop-color="#0088CC"/>
<stop offset="1" stop-color="#006293"/>
</linearGradient>
<clipPath id="clip0_101_2">
<rect width="109" height="44.0404" fill="white" transform="translate(0.5)"/>
</clipPath>
</defs>
</svg>
