<svg width="247" height="156" viewBox="0 0 247 156" fill="none" xmlns="http://www.w3.org/2000/svg">
<g clip-path="url(#clip0_348_115)">
<path d="M247 64.0707H246.583V52.5878C246.583 51.715 246.412 50.8508 246.08 50.0445C245.747 49.2382 245.26 48.5055 244.646 47.8884C244.032 47.2712 243.303 46.7817 242.5 46.4477C241.698 46.1137 240.838 45.9418 239.969 45.9418H215.758C214.89 45.9418 214.029 46.1137 213.227 46.4477C212.425 46.7817 211.695 47.2712 211.081 47.8884C210.467 48.5055 209.98 49.2382 209.648 50.0445C209.315 50.8508 209.144 51.715 209.144 52.5878V115.584C209.144 116.457 209.315 117.321 209.648 118.127C209.98 118.934 210.467 119.666 211.081 120.283C211.695 120.901 212.425 121.39 213.227 121.724C214.029 122.058 214.89 122.23 215.758 122.23H239.969C240.838 122.23 241.698 122.058 242.5 121.724C243.303 121.39 244.032 120.901 244.646 120.283C245.26 119.666 245.747 118.934 246.08 118.127C246.412 117.321 246.583 116.457 246.583 115.584V72.2445H247V64.0707Z" fill="#3F3D56"/>
<path d="M245.175 52.9783V115.883C245.175 117.199 244.655 118.462 243.728 119.393C242.802 120.324 241.546 120.847 240.235 120.847H215.908C215.259 120.847 214.617 120.718 214.018 120.469C213.419 120.219 212.874 119.854 212.416 119.393C211.957 118.932 211.594 118.384 211.346 117.782C211.098 117.18 210.97 116.535 210.97 115.883V52.9783C210.97 51.6624 211.49 50.4004 212.416 49.4699C213.342 48.5394 214.598 48.0167 215.908 48.0167H218.859C218.715 48.3747 218.659 48.763 218.699 49.1474C218.738 49.5318 218.871 49.9005 219.086 50.2213C219.3 50.542 219.59 50.8048 219.929 50.9867C220.269 51.1686 220.647 51.2639 221.032 51.2643H234.903C235.288 51.265 235.667 51.1704 236.007 50.9889C236.347 50.8073 236.637 50.5444 236.852 50.2233C237.067 49.9022 237.199 49.533 237.238 49.1481C237.277 48.7632 237.221 48.3746 237.075 48.0167H240.235C241.545 48.0166 242.801 48.5393 243.728 49.4697C244.654 50.4001 245.175 51.6622 245.175 52.9783Z" fill="#E8E8E8"/>
<path d="M240.57 80.2222H212.29V87.8902H240.57V80.2222Z" fill="#0088CC"/>
<path d="M241.692 86.537H214.31C214.132 86.5368 213.96 86.4655 213.834 86.3387C213.708 86.2118 213.637 86.0398 213.637 85.8605V79.0946C213.637 78.9152 213.708 78.7432 213.834 78.6164C213.96 78.4895 214.132 78.4182 214.31 78.418H241.692C241.871 78.4182 242.042 78.4895 242.168 78.6164C242.294 78.7432 242.365 78.9152 242.365 79.0946V85.8605C242.365 86.0398 242.294 86.2118 242.168 86.3387C242.042 86.4655 241.871 86.5368 241.692 86.537ZM214.31 78.8691C214.251 78.8691 214.193 78.8929 214.151 78.9352C214.109 78.9775 214.086 79.0348 214.086 79.0946V85.8605C214.086 85.9203 214.109 85.9776 214.151 86.0199C214.193 86.0622 214.251 86.0859 214.31 86.086H241.692C241.752 86.0859 241.809 86.0622 241.851 86.0199C241.893 85.9776 241.917 85.9203 241.917 85.8605V79.0946C241.917 79.0348 241.893 78.9775 241.851 78.9352C241.809 78.8929 241.752 78.8691 241.692 78.8691H214.31Z" fill="#3F3D56"/>
<path d="M219.023 84.5073H215.432V84.9583H219.023V84.5073Z" fill="#3F3D56"/>
<path d="M223.961 84.5073H220.37V84.9583H223.961V84.5073Z" fill="#3F3D56"/>
<path d="M228.899 84.5073H225.308V84.9583H228.899V84.5073Z" fill="#3F3D56"/>
<path d="M233.837 84.5073H230.246V84.9583H233.837V84.5073Z" fill="#3F3D56"/>
<path d="M238.774 84.5073H235.183V84.9583H238.774V84.5073Z" fill="#3F3D56"/>
<path opacity="0.1" d="M245.175 109.487V115.883C245.175 117.199 244.655 118.462 243.728 119.393C242.802 120.324 241.546 120.847 240.235 120.847H215.908C215.259 120.847 214.617 120.718 214.018 120.469C213.419 120.219 212.874 119.854 212.416 119.393C211.957 118.932 211.594 118.384 211.346 117.782C211.098 117.18 210.97 116.535 210.97 115.883V86.4604L245.175 109.487Z" fill="black"/>
<path d="M128.573 103.677H22.4111V156H128.573V103.677Z" fill="#E8E8E8"/>
<path opacity="0.1" d="M101.584 156H22.86C22.7411 156 22.6271 155.952 22.543 155.867C22.4589 155.783 22.4115 155.668 22.4111 155.549V104.128C22.4115 104.009 22.4589 103.894 22.543 103.81C22.6271 103.725 22.7411 103.678 22.86 103.677H23.8565L101.584 156Z" fill="black"/>
<path d="M236.081 110.669H71.564V111.12H236.081V110.669Z" fill="#3F3D56"/>
<path d="M123.577 0.97378H76.5586V0H55.2385V0.97378H8.02616C7.60849 0.973779 7.19492 1.05644 6.80905 1.21705C6.42318 1.37765 6.07257 1.61306 5.77724 1.90982C5.4819 2.20658 5.24763 2.55889 5.0878 2.94662C4.92797 3.33436 4.8457 3.74993 4.8457 4.16962V68.8639C4.8457 69.7115 5.18078 70.5244 5.77723 71.1237C6.37368 71.7231 7.18265 72.0598 8.02616 72.0598H123.577C124.421 72.0598 125.23 71.7231 125.826 71.1237C126.423 70.5244 126.758 69.7115 126.758 68.8639V4.16962C126.758 3.74993 126.675 3.33436 126.516 2.94662C126.356 2.55889 126.121 2.20658 125.826 1.90982C125.531 1.61306 125.18 1.37765 124.794 1.21705C124.408 1.05644 123.995 0.973779 123.577 0.97378Z" fill="#3F3D56"/>
<path d="M122.492 6.62081H9.11035V70.8921H122.492V6.62081Z" fill="#E8E8E8"/>
<path d="M65.7044 4.86891C66.3467 4.86891 66.8673 4.34573 66.8673 3.70037C66.8673 3.055 66.3467 2.53183 65.7044 2.53183C65.0622 2.53183 64.5415 3.055 64.5415 3.70037C64.5415 4.34573 65.0622 4.86891 65.7044 4.86891Z" fill="#0088CC"/>
<path d="M42.8354 30.6058H40.1421C39.9636 30.6056 39.7924 30.5343 39.6662 30.4074C39.5399 30.2806 39.4689 30.1086 39.4688 29.9292V27.2229C39.4689 27.0435 39.5399 26.8715 39.6662 26.7447C39.7924 26.6179 39.9636 26.5465 40.1421 26.5463H42.8354C43.0139 26.5465 43.1851 26.6179 43.3113 26.7447C43.4375 26.8715 43.5085 27.0435 43.5087 27.2229V29.9292C43.5085 30.1086 43.4375 30.2806 43.3113 30.4074C43.1851 30.5343 43.0139 30.6056 42.8354 30.6058ZM40.1421 26.9974C40.0826 26.9974 40.0255 27.0212 39.9835 27.0635C39.9414 27.1058 39.9177 27.1631 39.9176 27.2229V29.9292C39.9177 29.989 39.9414 30.0464 39.9835 30.0886C40.0255 30.1309 40.0826 30.1547 40.1421 30.1548H42.8354C42.8949 30.1547 42.9519 30.1309 42.994 30.0886C43.0361 30.0464 43.0598 29.989 43.0598 29.9292V27.2229C43.0598 27.1631 43.0361 27.1058 42.994 27.0635C42.9519 27.0212 42.8949 26.9974 42.8354 26.9974H40.1421Z" fill="#3F3D56"/>
<path d="M90.8659 30.1548H39.6929V30.6058H90.8659V30.1548Z" fill="#3F3D56"/>
<path d="M89.5195 42.5589H77.624V46.1673H89.5195V42.5589Z" fill="#0088CC"/>
<path d="M90.4171 45.2652H79.4194C79.2409 45.265 79.0698 45.1937 78.9435 45.0668C78.8173 44.94 78.7463 44.768 78.7461 44.5886V41.8823C78.7463 41.7029 78.8173 41.5309 78.9435 41.4041C79.0698 41.2772 79.2409 41.2059 79.4194 41.2057H90.4171C90.5957 41.2059 90.7668 41.2772 90.893 41.4041C91.0193 41.5309 91.0903 41.7029 91.0905 41.8823V44.5886C91.0903 44.768 91.0193 44.94 90.893 45.0668C90.7668 45.1937 90.5957 45.265 90.4171 45.2652ZM79.4194 41.6568C79.3599 41.6568 79.3029 41.6806 79.2608 41.7229C79.2187 41.7652 79.1951 41.8225 79.195 41.8823V44.5886C79.1951 44.6484 79.2187 44.7057 79.2608 44.748C79.3029 44.7903 79.3599 44.8141 79.4194 44.8142H90.4171C90.4766 44.8141 90.5337 44.7903 90.5758 44.748C90.6178 44.7057 90.6415 44.6484 90.6416 44.5886V41.8823C90.6415 41.8225 90.6178 41.7652 90.5758 41.7229C90.5337 41.6806 90.4766 41.6568 90.4171 41.6568H79.4194Z" fill="#3F3D56"/>
<path d="M180.419 46.6184H157.975V62.4054H180.419V46.6184Z" fill="#0088CC"/>
<path d="M182.664 61.165H161.117C160.879 61.1648 160.651 61.0696 160.482 60.9005C160.314 60.7314 160.219 60.5021 160.219 60.2629V45.378C160.219 45.1388 160.314 44.9095 160.482 44.7404C160.651 44.5713 160.879 44.4761 161.117 44.4759H182.664C182.902 44.4761 183.13 44.5712 183.298 44.7404C183.466 44.9095 183.561 45.1388 183.561 45.378V60.2629C183.561 60.5021 183.466 60.7314 183.298 60.9005C183.13 61.0696 182.902 61.1648 182.664 61.165ZM161.117 45.378V60.2629H182.664L182.664 45.378H161.117Z" fill="#3F3D56"/>
<path d="M180.195 44.8142H179.297C179.297 42.8403 178.517 40.9473 177.128 39.5515C175.739 38.1558 173.855 37.3717 171.89 37.3717C169.926 37.3717 168.042 38.1558 166.653 39.5515C165.264 40.9473 164.484 42.8403 164.484 44.8142H163.586C163.586 42.601 164.461 40.4786 166.018 38.9137C167.576 37.3487 169.688 36.4696 171.89 36.4696C174.093 36.4696 176.205 37.3487 177.762 38.9137C179.32 40.4786 180.195 42.601 180.195 44.8142Z" fill="#3F3D56"/>
<path d="M174.134 51.0162C174.135 50.6235 174.033 50.2375 173.84 49.8963C173.646 49.5552 173.367 49.2707 173.031 49.0712C172.694 48.8716 172.311 48.7638 171.92 48.7585C171.53 48.7532 171.144 48.8505 170.802 49.0408C170.46 49.2311 170.174 49.5078 169.971 49.8436C169.768 50.1793 169.656 50.5624 169.646 50.955C169.636 51.3476 169.728 51.7361 169.913 52.0819C170.098 52.4278 170.37 52.7191 170.702 52.927V55.3477C170.702 55.5045 170.733 55.6598 170.792 55.8046C170.852 55.9495 170.939 56.0811 171.05 56.192C171.16 56.3028 171.291 56.3908 171.435 56.4508C171.579 56.5108 171.734 56.5417 171.89 56.5417C172.205 56.5417 172.507 56.4159 172.73 56.192C172.953 55.9681 173.078 55.6644 173.078 55.3477V52.927C173.401 52.7249 173.668 52.4434 173.853 52.1091C174.037 51.7747 174.134 51.3986 174.134 51.0162Z" fill="#3F3D56"/>
<path d="M67.4119 126.907H63.8208V127.358H67.4119V126.907Z" fill="#3F3D56"/>
<path d="M72.3494 126.907H68.7583V127.358H72.3494V126.907Z" fill="#3F3D56"/>
<path d="M77.2874 126.907H73.6963V127.358H77.2874V126.907Z" fill="#3F3D56"/>
<path d="M82.2249 126.907H78.6338V127.358H82.2249V126.907Z" fill="#3F3D56"/>
<path d="M87.1629 126.907H83.5718V127.358H87.1629V126.907Z" fill="#3F3D56"/>
<path d="M133.286 152.166H28.0223C27.7843 152.166 27.5561 152.071 27.3877 151.902C27.2194 151.732 27.1248 151.503 27.1245 151.264V99.8433C27.1248 99.6041 27.2194 99.3748 27.3877 99.2057C27.5561 99.0365 27.7843 98.9414 28.0223 98.9412H133.286C133.524 98.9414 133.752 99.0365 133.921 99.2056C134.089 99.3748 134.184 99.6041 134.184 99.8433V151.264C134.184 151.503 134.089 151.732 133.921 151.902C133.752 152.071 133.524 152.166 133.286 152.166ZM28.0223 99.8433V151.264H133.287L133.286 99.8433H28.0223Z" fill="#3F3D56"/>
<path d="M32.7353 107.511C33.4791 107.511 34.082 106.905 34.082 106.158C34.082 105.411 33.4791 104.805 32.7353 104.805C31.9916 104.805 31.3887 105.411 31.3887 106.158C31.3887 106.905 31.9916 107.511 32.7353 107.511Z" fill="#3F3D56"/>
<path d="M37.4487 107.511C38.1925 107.511 38.7954 106.905 38.7954 106.158C38.7954 105.411 38.1925 104.805 37.4487 104.805C36.705 104.805 36.1021 105.411 36.1021 106.158C36.1021 106.905 36.705 107.511 37.4487 107.511Z" fill="#3F3D56"/>
<path d="M42.1621 107.511C42.9058 107.511 43.5087 106.905 43.5087 106.158C43.5087 105.411 42.9058 104.805 42.1621 104.805C41.4183 104.805 40.8154 105.411 40.8154 106.158C40.8154 106.905 41.4183 107.511 42.1621 107.511Z" fill="#3F3D56"/>
<path d="M90.6416 130.064H60.3418C60.1633 130.064 59.9921 129.993 59.8659 129.866C59.7397 129.739 59.6687 129.567 59.6685 129.388V121.72C59.6687 121.54 59.7397 121.368 59.8659 121.241C59.9921 121.115 60.1633 121.043 60.3418 121.043H90.6416C90.8202 121.043 90.9913 121.115 91.1175 121.241C91.2438 121.368 91.3148 121.54 91.315 121.72V129.388C91.3148 129.567 91.2438 129.739 91.1175 129.866C90.9913 129.993 90.8202 130.064 90.6416 130.064ZM60.3418 121.494C60.2823 121.494 60.2252 121.518 60.1831 121.56C60.1411 121.602 60.1174 121.66 60.1173 121.72V129.388C60.1174 129.447 60.1411 129.505 60.1831 129.547C60.2252 129.589 60.2823 129.613 60.3418 129.613H90.6416C90.7011 129.613 90.7582 129.589 90.8003 129.547C90.8423 129.505 90.866 129.447 90.8661 129.388V121.72C90.866 121.66 90.8423 121.602 90.8003 121.56C90.7582 121.518 90.7011 121.494 90.6416 121.494H60.3418Z" fill="#3F3D56"/>
<path d="M98.2729 130.29C100.504 130.29 102.313 128.472 102.313 126.23C102.313 123.988 100.504 122.171 98.2729 122.171C96.0417 122.171 94.2329 123.988 94.2329 126.23C94.2329 128.472 96.0417 130.29 98.2729 130.29Z" fill="#0088CC"/>
<path d="M99.6194 129.839C98.776 129.839 97.9515 129.587 97.2502 129.116C96.5489 128.646 96.0024 127.976 95.6796 127.193C95.3568 126.41 95.2724 125.549 95.4369 124.718C95.6015 123.886 96.0076 123.123 96.604 122.524C97.2004 121.924 97.9602 121.516 98.7875 121.351C99.6147 121.186 100.472 121.27 101.251 121.595C102.031 121.919 102.697 122.468 103.165 123.173C103.634 123.878 103.884 124.706 103.884 125.554C103.883 126.69 103.433 127.779 102.633 128.582C101.834 129.385 100.75 129.837 99.6194 129.839ZM99.6194 121.72C98.8648 121.72 98.1271 121.944 97.4996 122.366C96.8721 122.787 96.3831 123.386 96.0943 124.086C95.8055 124.787 95.73 125.558 95.8772 126.302C96.0244 127.045 96.3878 127.728 96.9214 128.265C97.455 128.801 98.1349 129.166 98.875 129.314C99.6152 129.462 100.382 129.386 101.08 129.096C101.777 128.806 102.373 128.314 102.792 127.684C103.211 127.053 103.435 126.312 103.435 125.554C103.434 124.537 103.031 123.563 102.316 122.844C101.601 122.125 100.631 121.721 99.6194 121.72Z" fill="#3F3D56"/>
<path d="M99.6792 127.154L97.5063 124.97L98.1411 124.333L99.5593 125.757L103.517 120.107L104.251 120.626L99.6792 127.154Z" fill="#3F3D56"/>
<path opacity="0.1" d="M97.3547 70.8921H9.11035V11.49L97.3547 70.8921Z" fill="black"/>
<path d="M129.941 69.7227H118.875V68.9216C118.875 68.9007 118.871 68.8801 118.863 68.8608C118.855 68.8415 118.844 68.824 118.829 68.8093C118.814 68.7945 118.797 68.7828 118.778 68.7748C118.759 68.7669 118.738 68.7628 118.717 68.7628H114.923C114.903 68.7628 114.882 68.7669 114.863 68.7748C114.844 68.7828 114.826 68.7945 114.812 68.8093C114.797 68.824 114.785 68.8415 114.777 68.8608C114.769 68.8801 114.765 68.9007 114.765 68.9216V69.7227H112.394V68.9216C112.394 68.9007 112.39 68.8801 112.382 68.8608C112.374 68.8415 112.363 68.824 112.348 68.8093C112.333 68.7945 112.316 68.7828 112.297 68.7748C112.277 68.7669 112.257 68.7628 112.236 68.7628H108.442C108.421 68.7628 108.401 68.7669 108.382 68.7748C108.363 68.7828 108.345 68.7945 108.33 68.8093C108.316 68.824 108.304 68.8415 108.296 68.8608C108.288 68.8801 108.284 68.9007 108.284 68.9216V69.7227H105.913V68.9216C105.913 68.9007 105.909 68.8801 105.901 68.8608C105.893 68.8415 105.881 68.824 105.867 68.8093C105.852 68.7945 105.835 68.7828 105.815 68.7748C105.796 68.7669 105.776 68.7628 105.755 68.7628H101.961C101.94 68.7628 101.92 68.7669 101.9 68.7748C101.881 68.7828 101.864 68.7945 101.849 68.8093C101.835 68.824 101.823 68.8415 101.815 68.8608C101.807 68.8801 101.803 68.9007 101.803 68.9216V69.7227H99.4317V68.9216C99.4317 68.9007 99.4276 68.8801 99.4197 68.8608C99.4117 68.8415 99.4001 68.824 99.3854 68.8093C99.3707 68.7945 99.3533 68.7828 99.3341 68.7748C99.3149 68.7669 99.2944 68.7628 99.2736 68.7628H95.4797C95.459 68.7628 95.4384 68.7669 95.4192 68.7748C95.4 68.7828 95.3826 68.7945 95.3679 68.8093C95.3533 68.824 95.3416 68.8415 95.3337 68.8608C95.3257 68.8801 95.3216 68.9007 95.3216 68.9216V69.7227H92.9505V68.9216C92.9505 68.9007 92.9464 68.8801 92.9384 68.8608C92.9305 68.8415 92.9188 68.824 92.9042 68.8093C92.8895 68.7945 92.8721 68.7828 92.8529 68.7748C92.8337 68.7669 92.8131 68.7628 92.7924 68.7628H88.9985C88.9777 68.7628 88.9572 68.7669 88.938 68.7748C88.9188 68.7828 88.9014 68.7945 88.8867 68.8093C88.872 68.824 88.8604 68.8415 88.8524 68.8608C88.8445 68.8801 88.8404 68.9007 88.8404 68.9216V69.7227H86.4692V68.9216C86.4692 68.9007 86.4651 68.8801 86.4572 68.8608C86.4492 68.8415 86.4376 68.824 86.4229 68.8093C86.4082 68.7945 86.3908 68.7828 86.3716 68.7748C86.3525 68.7669 86.3319 68.7628 86.3111 68.7628H82.5172C82.4965 68.7628 82.4759 68.7669 82.4567 68.7748C82.4376 68.7828 82.4201 68.7945 82.4055 68.8093C82.3908 68.824 82.3791 68.8415 82.3712 68.8608C82.3633 68.8801 82.3592 68.9007 82.3592 68.9216V69.7227H79.988V68.9216C79.988 68.9007 79.9839 68.8801 79.976 68.8608C79.968 68.8415 79.9564 68.824 79.9417 68.8093C79.927 68.7945 79.9096 68.7828 79.8904 68.7748C79.8712 68.7669 79.8507 68.7628 79.8299 68.7628H50.111C50.0903 68.7628 50.0697 68.7669 50.0505 68.7748C50.0314 68.7828 50.0139 68.7945 49.9993 68.8093C49.9846 68.824 49.9729 68.8415 49.965 68.8608C49.9571 68.8801 49.953 68.9007 49.953 68.9216V69.7227H47.5818V68.9216C47.5818 68.9007 47.5777 68.8801 47.5697 68.8608C47.5618 68.8415 47.5502 68.824 47.5355 68.8093C47.5208 68.7945 47.5034 68.7828 47.4842 68.7748C47.465 68.7669 47.4445 68.7628 47.4237 68.7628H43.6298C43.609 68.7628 43.5885 68.7669 43.5693 68.7748C43.5501 68.7828 43.5327 68.7945 43.518 68.8093C43.5033 68.824 43.4917 68.8415 43.4838 68.8608C43.4758 68.8801 43.4717 68.9007 43.4717 68.9216V69.7227H41.1005V68.9216C41.1005 68.9007 41.0965 68.8801 41.0885 68.8608C41.0806 68.8415 41.0689 68.824 41.0542 68.8093C41.0396 68.7945 41.0221 68.7828 41.003 68.7748C40.9838 68.7669 40.9632 68.7628 40.9425 68.7628H37.1486C37.1278 68.7628 37.1073 68.7669 37.0881 68.7748C37.0689 68.7828 37.0515 68.7945 37.0368 68.8093C37.0221 68.824 37.0105 68.8415 37.0025 68.8608C36.9946 68.8801 36.9905 68.9007 36.9905 68.9216V69.7227H34.6193V68.9216C34.6193 68.9007 34.6152 68.8801 34.6073 68.8608C34.5993 68.8415 34.5877 68.824 34.573 68.8093C34.5583 68.7945 34.5409 68.7828 34.5217 68.7748C34.5025 68.7669 34.482 68.7628 34.4612 68.7628H30.6673C30.6466 68.7628 30.626 68.7669 30.6068 68.7748C30.5877 68.7828 30.5702 68.7945 30.5556 68.8093C30.5409 68.824 30.5292 68.8415 30.5213 68.8608C30.5133 68.8801 30.5093 68.9007 30.5093 68.9216V69.7227H28.1381V68.9216C28.1381 68.9007 28.134 68.8801 28.126 68.8608C28.1181 68.8415 28.1064 68.824 28.0918 68.8093C28.0771 68.7945 28.0597 68.7828 28.0405 68.7748C28.0213 68.7669 28.0007 68.7628 27.98 68.7628H24.1861C24.1653 68.7628 24.1448 68.7669 24.1256 68.7748C24.1064 68.7828 24.089 68.7945 24.0743 68.8093C24.0596 68.824 24.048 68.8415 24.04 68.8608C24.0321 68.8801 24.028 68.9007 24.028 68.9216V69.7227H21.6568V68.9216C21.6568 68.9007 21.6527 68.8801 21.6448 68.8608C21.6369 68.8415 21.6252 68.824 21.6105 68.8093C21.5959 68.7945 21.5784 68.7828 21.5592 68.7748C21.5401 68.7669 21.5195 68.7628 21.4988 68.7628H17.7048C17.6841 68.7628 17.6635 68.7669 17.6444 68.7748C17.6252 68.7828 17.6077 68.7945 17.5931 68.8093C17.5784 68.824 17.5667 68.8415 17.5588 68.8608C17.5509 68.8801 17.5468 68.9007 17.5468 68.9216V69.7227H15.1756V68.9216C15.1756 68.9007 15.1715 68.8801 15.1636 68.8608C15.1556 68.8415 15.144 68.824 15.1293 68.8093C15.1146 68.7945 15.0972 68.7828 15.078 68.7748C15.0588 68.7669 15.0383 68.7628 15.0175 68.7628H11.2236C11.2029 68.7628 11.1823 68.7669 11.1631 68.7748C11.1439 68.7828 11.1265 68.7945 11.1118 68.8093C11.0972 68.824 11.0855 68.8415 11.0776 68.8608C11.0696 68.8801 11.0655 68.9007 11.0655 68.9216V69.7227H3.7939C3.29567 69.7227 2.80233 69.8213 2.34203 70.0129C1.88174 70.2045 1.4635 70.4853 1.11121 70.8393C0.758909 71.1933 0.479453 71.6136 0.288792 72.0761C0.0981314 72.5386 -2.94743e-07 73.0343 0 73.535V75.2588C2.38104e-06 76.2699 0.399716 77.2395 1.11121 77.9544C1.8227 78.6694 2.78769 79.071 3.7939 79.071H129.941C130.439 79.071 130.933 78.9724 131.393 78.7808C131.853 78.5893 132.271 78.3084 132.624 77.9544C132.976 77.6004 133.255 77.1802 133.446 76.7177C133.637 76.2551 133.735 75.7594 133.735 75.2588V73.535C133.735 73.0343 133.637 72.5386 133.446 72.0761C133.255 71.6136 132.976 71.1933 132.624 70.8393C132.271 70.4853 131.853 70.2045 131.393 70.0129C130.933 69.8213 130.439 69.7227 129.941 69.7227Z" fill="#3F3D56"/>
<path d="M95.3551 49.0992H36.102C35.9235 49.099 35.7524 49.0277 35.6261 48.9008C35.4999 48.774 35.4289 48.602 35.4287 48.4226V23.6144C35.4289 23.435 35.4999 23.2631 35.6261 23.1362C35.7524 23.0094 35.9235 22.938 36.102 22.9378H95.3551C95.5336 22.938 95.7047 23.0094 95.831 23.1362C95.9572 23.2631 96.0282 23.435 96.0284 23.6144V48.4226C96.0282 48.602 95.9572 48.774 95.831 48.9008C95.7047 49.0277 95.5336 49.099 95.3551 49.0992ZM36.102 23.3889C36.0425 23.389 35.9855 23.4128 35.9434 23.455C35.9013 23.4973 35.8777 23.5546 35.8776 23.6144V48.4226C35.8777 48.4824 35.9013 48.5397 35.9434 48.582C35.9855 48.6243 36.0425 48.6481 36.102 48.6482H95.3551C95.4146 48.6481 95.4716 48.6243 95.5137 48.582C95.5558 48.5397 95.5794 48.4824 95.5795 48.4226V23.6144C95.5794 23.5546 95.5558 23.4973 95.5137 23.455C95.4716 23.4128 95.4146 23.389 95.3551 23.3889H36.102Z" fill="#3F3D56"/>
<path d="M42.8354 37.3717H40.1421C39.9636 37.3715 39.7924 37.3002 39.6662 37.1733C39.5399 37.0465 39.4689 36.8745 39.4688 36.6951V33.9888C39.4689 33.8094 39.5399 33.6374 39.6662 33.5106C39.7924 33.3837 39.9636 33.3124 40.1421 33.3122H42.8354C43.0139 33.3124 43.1851 33.3837 43.3113 33.5106C43.4375 33.6374 43.5085 33.8094 43.5087 33.9888V36.6951C43.5085 36.8745 43.4375 37.0465 43.3113 37.1733C43.1851 37.3002 43.0139 37.3715 42.8354 37.3717ZM40.1421 33.7632C40.0826 33.7633 40.0255 33.7871 39.9835 33.8294C39.9414 33.8717 39.9177 33.929 39.9176 33.9888V36.6951C39.9177 36.7549 39.9414 36.8122 39.9835 36.8545C40.0255 36.8968 40.0826 36.9206 40.1421 36.9206H42.8354C42.8949 36.9206 42.9519 36.8968 42.994 36.8545C43.0361 36.8122 43.0598 36.7549 43.0598 36.6951V33.9888C43.0598 33.929 43.0361 33.8717 42.994 33.8294C42.9519 33.7871 42.8949 33.7633 42.8354 33.7632H40.1421Z" fill="#3F3D56"/>
<path d="M90.8659 36.9206H39.6929V37.3717H90.8659V36.9206Z" fill="#3F3D56"/>
<path d="M223.961 60.8267H59.4443V61.2778H223.961V60.8267Z" fill="#3F3D56"/>
<path d="M59.444 63.9841C61.1794 63.9841 62.5862 62.5705 62.5862 60.8267C62.5862 59.0829 61.1794 57.6693 59.444 57.6693C57.7086 57.6693 56.3018 59.0829 56.3018 60.8267C56.3018 62.5705 57.7086 63.9841 59.444 63.9841Z" fill="#3F3D56"/>
<path d="M223.961 63.7586C225.325 63.7586 226.43 62.6479 226.43 61.2778C226.43 59.9077 225.325 58.797 223.961 58.797C222.598 58.797 221.492 59.9077 221.492 61.2778C221.492 62.6479 222.598 63.7586 223.961 63.7586Z" fill="#3F3D56"/>
<path d="M236.081 113.601C237.445 113.601 238.55 112.49 238.55 111.12C238.55 109.75 237.445 108.639 236.081 108.639C234.718 108.639 233.612 109.75 233.612 111.12C233.612 112.49 234.718 113.601 236.081 113.601Z" fill="#3F3D56"/>
<path d="M72.2374 113.601C73.601 113.601 74.7063 112.49 74.7063 111.12C74.7063 109.75 73.601 108.639 72.2374 108.639C70.8739 108.639 69.7686 109.75 69.7686 111.12C69.7686 112.49 70.8739 113.601 72.2374 113.601Z" fill="#3F3D56"/>
</g>
<defs>
<clipPath id="clip0_348_115">
<rect width="247" height="156" fill="white"/>
</clipPath>
</defs>
</svg>
