<svg width="45" height="45" viewBox="0 0 45 45" fill="none" xmlns="http://www.w3.org/2000/svg">
<circle cx="25" cy="20" r="15" fill="white"/>
<path fill-rule="evenodd" clip-rule="evenodd" d="M34.7542 33.8468L29.4161 30.7652C28.3788 30.1663 27.0404 30.5231 26.4419 31.5613L26.2313 31.9267C25.6979 32.852 24.8774 33.4416 23.8313 33.6559C22.7895 33.8693 21.7959 33.6459 20.9452 33.0077C19.1993 31.6979 17.5499 30.2516 16.0068 28.7085C14.464 27.1657 13.0177 25.5166 11.7083 23.7708C11.0701 22.9199 10.8459 21.9263 11.0594 20.8841C11.2736 19.8382 11.8645 19.0189 12.7891 18.4852L13.1542 18.2746C13.6606 17.9824 14.015 17.515 14.1664 16.9509C14.3171 16.3892 14.2423 15.8043 13.9514 15.3006L10.8694 9.9625C10.3221 9.01461 9.19282 8.63844 8.1768 9.02836L8.11047 9.05383C7.06329 9.45555 4.17711 10.5098 3.40149 11.2854C1.10782 13.5791 2.08922 17.7287 3.1125 20.3692C4.90461 24.9938 8.30407 29.4449 11.7878 32.9281C15.2711 36.411 19.722 39.8115 24.346 41.6035C25.9504 42.2252 27.7558 42.716 29.4877 42.716C30.9373 42.716 32.3801 42.3651 33.4306 41.3145C34.17 40.5752 35.2667 37.5986 35.6685 36.5878L35.6944 36.5227C36.0955 35.5137 35.6917 34.388 34.7542 33.8468ZM33.1099 12.9066C33.6146 13.0875 33.9512 13.5663 33.9512 14.1022V20.1804H34.1878C34.8887 20.1804 35.4578 20.7495 35.4578 21.4504C35.4578 22.152 34.8895 22.7204 34.1878 22.7204H33.9512V24.1263C33.9512 24.828 33.3821 25.3959 32.6812 25.3959C31.9799 25.3959 31.4116 24.828 31.4116 24.1263V22.7204H26.6337C26.1424 22.7204 25.695 22.437 25.4853 21.9933C25.2756 21.5488 25.3408 21.0235 25.6527 20.6442L31.7002 13.2948C32.0406 12.8813 32.6052 12.7259 33.1099 12.9066ZM31.4116 20.1805H29.3238L31.4116 17.6438V20.1805ZM22.8041 17.673C23.0374 16.8182 22.9004 16.1816 22.3945 15.7814C21.8063 15.3164 20.8269 15.234 20.1642 15.5949C19.6871 15.8548 19.4853 16.2928 19.5463 16.9349C19.6141 17.6332 19.1027 18.254 18.4044 18.3206C17.7057 18.3884 17.0861 17.8762 17.0187 17.1787C16.8581 15.5099 17.5616 14.1193 18.9488 13.3638C20.5127 12.5131 22.578 12.6876 23.9708 13.7902C25.2909 14.8345 25.759 16.4942 25.2543 18.342C24.9106 19.6011 23.7214 20.5282 22.4638 21.5106C21.9269 21.9292 21.3563 22.3745 20.8388 22.8563H24.5291C25.2304 22.8563 25.7988 23.4254 25.7988 24.1263C25.7988 24.828 25.2304 25.3959 24.5291 25.3959H18.2535C17.8162 25.3959 17.4092 25.1713 17.1771 24.8006C16.9446 24.4303 16.9202 23.9657 17.1109 23.5722C17.975 21.7919 19.5974 20.5256 20.9007 19.5083C21.6944 18.8884 22.6824 18.1174 22.8041 17.673ZM42 19.5402C42 23.9579 40.2792 28.1109 37.1555 31.235C36.9072 31.4825 36.5826 31.6072 36.2573 31.6072C35.9327 31.6072 35.607 31.4825 35.3595 31.235C34.8634 30.7389 34.8634 29.9346 35.3595 29.4386C38.0032 26.7949 39.46 23.2791 39.46 19.5402C39.46 11.8201 33.1799 5.54 25.4599 5.54C21.7206 5.54 18.2052 6.99649 15.5611 9.64024C15.065 10.1363 14.2611 10.1363 13.765 9.64024C13.2689 9.14414 13.2689 8.34024 13.765 7.84414C16.8891 4.72078 21.0421 3 25.4599 3C34.5799 3.00008 42 10.4198 42 19.5402Z" fill="#2D2D2D"/>
<path fill-rule="evenodd" clip-rule="evenodd" d="M33.1101 12.9067C33.6148 13.0875 33.9513 13.5664 33.9513 14.1022V20.1804H34.188C34.8888 20.1804 35.458 20.7496 35.458 21.4504C35.458 22.1521 34.8896 22.7204 34.188 22.7204H33.9513V24.1264C33.9513 24.828 33.3823 25.396 32.6813 25.396C31.9801 25.396 31.4117 24.828 31.4117 24.1264V22.7204H26.6338C26.1426 22.7204 25.6952 22.437 25.4855 21.9933C25.2758 21.5489 25.3409 21.0236 25.6528 20.6443L31.7004 13.2949C32.0407 12.8813 32.6053 12.7259 33.1101 12.9067ZM31.4117 20.1805H29.324L31.4117 17.6439V20.1805ZM22.8043 17.673C23.0376 16.8183 22.9005 16.1817 22.3947 15.7815C21.8065 15.3165 20.827 15.234 20.1643 15.595C19.6873 15.8548 19.4855 16.2929 19.5465 16.935C19.6142 17.6333 19.1028 18.254 18.4045 18.3207C17.7059 18.3884 17.0862 17.8762 17.0188 17.1787C16.8582 15.51 17.5617 14.1193 18.9489 13.3638C20.5128 12.5132 22.5781 12.6876 23.9709 13.7903C25.2911 14.8345 25.7591 16.4943 25.2544 18.342C24.9108 19.6011 23.7216 20.5283 22.4639 21.5107C21.927 21.9293 21.3564 22.3745 20.839 22.8564H24.5292C25.2305 22.8564 25.7989 23.4254 25.7989 24.1264C25.7989 24.828 25.2305 25.396 24.5292 25.396H18.2537C17.8163 25.396 17.4094 25.1713 17.1773 24.8007C16.9448 24.4304 16.9204 23.9658 17.111 23.5722C17.9751 21.7919 19.5975 20.5256 20.9009 19.5083C21.6945 18.8884 22.6826 18.1175 22.8043 17.673Z" fill="#0075AF"/>
<circle cx="29" cy="11" r="2" fill="#FF9D9D"/>
<circle cx="22" cy="30" r="2" fill="#FF9D9D"/>
</svg>
