<svg width="24" height="22" viewBox="0 0 24 22" fill="none" xmlns="http://www.w3.org/2000/svg">
<path d="M6.41971 15.0452C6.43171 15.1055 6.46472 15.1598 6.51063 15.1988C6.55782 15.2389 6.60258 15.25 6.62917 15.25H20.3333C20.4733 15.25 20.5833 15.14 20.5833 15C20.5833 14.86 20.4733 14.75 20.3333 14.75H7.49583H6.87593L6.75924 14.1412L6.37591 12.1412L6.2051 11.25H7.1125H20.325C20.5855 11.25 20.815 11.077 20.8863 10.8261L6.41971 15.0452ZM6.41971 15.0452C6.41964 15.0449 6.41958 15.0445 6.41951 15.0442L3.90926 1.85972L3.79318 1.25H3.1725H1C0.86213 1.25 0.75 1.13787 0.75 1C0.75 0.86213 0.86213 0.75 1 0.75H4C4.1123 0.75 4.21303 0.826635 4.24299 0.938159L4.30118 1.42276L4.38052 2.08333H5.04583H22.575C22.9373 2.08333 23.2359 2.46551 23.1362 2.82488C23.1361 2.82518 23.1361 2.82547 23.136 2.82576L20.8866 10.8252L6.41971 15.0452ZM6.08333 19.3333C6.08333 18.6434 6.64338 18.0833 7.33333 18.0833C8.02329 18.0833 8.58333 18.6434 8.58333 19.3333C8.58333 20.0233 8.02329 20.5833 7.33333 20.5833C6.64338 20.5833 6.08333 20.0233 6.08333 19.3333ZM20.5833 19.3333C20.5833 20.0233 20.0233 20.5833 19.3333 20.5833C18.6434 20.5833 18.0833 20.0233 18.0833 19.3333C18.0833 18.6434 18.6434 18.0833 19.3333 18.0833C20.0233 18.0833 20.5833 18.6434 20.5833 19.3333Z" stroke="white" stroke-width="1.5"/>
</svg>
