<svg width="30" height="30" viewBox="0 0 30 30" fill="none" xmlns="http://www.w3.org/2000/svg">
<path d="M7 4C7.47917 4 7.89167 4.34125 7.98333 4.81292L8.04583 5.33333H25.575C26.4208 5.33333 27.0958 6.17708 26.8583 7.0275L24.6083 15.0292C24.4458 15.6042 23.9208 16 23.325 16H10.1125L10.4958 18H23.3333C23.8875 18 24.3333 18.4458 24.3333 19C24.3333 19.5542 23.8875 20 23.3333 20H9.62917C9.1875 20 8.775 19.6583 8.68333 19.1875L6.1725 6H4C3.44792 6 3 5.55208 3 5C3 4.44792 3.44792 4 4 4H7ZM8.33333 23.3333C8.33333 22.2292 9.22917 21.3333 10.3333 21.3333C11.4375 21.3333 12.3333 22.2292 12.3333 23.3333C12.3333 24.4375 11.4375 25.3333 10.3333 25.3333C9.22917 25.3333 8.33333 24.4375 8.33333 23.3333ZM24.3333 23.3333C24.3333 24.4375 23.4375 25.3333 22.3333 25.3333C21.2292 25.3333 20.3333 24.4375 20.3333 23.3333C20.3333 22.2292 21.2292 21.3333 22.3333 21.3333C23.4375 21.3333 24.3333 22.2292 24.3333 23.3333Z" fill="white"/>
<path d="M7 4C7.47917 4 7.89167 4.34125 7.98333 4.81292L8.04583 5.33333H25.575C26.4208 5.33333 27.0958 6.17708 26.8583 7.0275L24.6083 15.0292C24.4458 15.6042 23.9208 16 23.325 16H10.1125L10.4958 18H23.3333C23.8875 18 24.3333 18.4458 24.3333 19C24.3333 19.5542 23.8875 20 23.3333 20H9.62917C9.1875 20 8.775 19.6583 8.68333 19.1875L6.1725 6H4C3.44792 6 3 5.55208 3 5C3 4.44792 3.44792 4 4 4H7ZM8.33333 23.3333C8.33333 22.2292 9.22917 21.3333 10.3333 21.3333C11.4375 21.3333 12.3333 22.2292 12.3333 23.3333C12.3333 24.4375 11.4375 25.3333 10.3333 25.3333C9.22917 25.3333 8.33333 24.4375 8.33333 23.3333ZM24.3333 23.3333C24.3333 24.4375 23.4375 25.3333 22.3333 25.3333C21.2292 25.3333 20.3333 24.4375 20.3333 23.3333C20.3333 22.2292 21.2292 21.3333 22.3333 21.3333C23.4375 21.3333 24.3333 22.2292 24.3333 23.3333Z" stroke="white"/>
<circle cx="26" cy="21" r="1" fill="white"/>
<circle cx="2" cy="16" r="1" fill="white"/>
<circle cx="20" cy="9" r="2" fill="white"/>
</svg>
