<svg width="45" height="45" viewBox="0 0 45 45" fill="none" xmlns="http://www.w3.org/2000/svg">
<g clip-path="url(#clip0_302_358)">
<rect x="7.4875" y="5.02802" width="36.6569" height="25.3615" rx="3" transform="rotate(4.68072 7.4875 5.02802)" fill="#E3E3E3"/>
<rect x="1" y="15" width="36" height="24" fill="white"/>
<rect x="1" y="15" width="36" height="5" fill="#0088CC"/>
<rect x="1" y="20" width="36" height="5" fill="#0088CC" fill-opacity="0.15"/>
<rect x="25" y="30" width="8" height="5" fill="#FF9D9D"/>
<path d="M44.2003 8.51033C43.6172 7.82109 42.8007 7.4001 41.901 7.32495L10.2115 4.67893C9.31171 4.60378 8.43685 4.88354 7.74753 5.46651C7.06102 6.0472 6.64064 6.85957 6.56312 7.75491L5.92556 13.7364H3.37982C1.5162 13.7364 0 15.2526 0 17.1162V36.9532C0 38.8168 1.5162 40.333 3.37982 40.333H35.1797C37.0434 40.333 38.5596 38.8168 38.5596 36.9532V33.7353L39.688 33.8295C39.7832 33.8374 39.8778 33.8414 39.9717 33.8414C41.7091 33.8414 43.1902 32.5046 43.3374 30.7426L44.988 10.9744C45.0631 10.0747 44.7833 9.19965 44.2003 8.51033ZM3.37982 15.4942H35.1797C36.074 15.4942 36.8018 16.2218 36.8018 17.1162V18.9237H1.75781V17.1162C1.75781 16.2218 2.48545 15.4942 3.37982 15.4942ZM1.75781 20.6816H36.8018V24.328H1.75781V20.6816ZM35.1797 38.5752H3.37982C2.48545 38.5752 1.75781 37.8476 1.75781 36.9532V26.0858H36.8018V36.9532C36.8018 37.8476 36.074 38.5752 35.1797 38.5752ZM43.2363 10.8281L41.5856 30.5963C41.5112 31.4876 40.7254 32.1525 39.8342 32.0778L38.5596 31.9713V17.1162C38.5596 15.2526 37.0434 13.7364 35.1797 13.7364H7.69339L8.31205 7.9321C8.31275 7.92542 8.31337 7.91883 8.31389 7.91206C8.38834 7.02076 9.17372 6.35596 10.0653 6.43067L41.7548 9.07669C42.1866 9.11273 42.5785 9.31479 42.8583 9.64561C43.138 9.97643 43.2723 10.3963 43.2363 10.8281Z" fill="black"/>
<path d="M33.1235 28.699H24.6647C24.1793 28.699 23.7858 29.0925 23.7858 29.5779V35.0964C23.7858 35.5819 24.1793 35.9754 24.6647 35.9754H33.1235C33.6089 35.9754 34.0024 35.5819 34.0024 35.0964V29.5779C34.0024 29.0925 33.6089 28.699 33.1235 28.699ZM32.2446 34.2175H25.5436V30.4568H32.2446V34.2175Z" fill="black"/>
</g>
<defs>
<clipPath id="clip0_302_358">
<rect width="45" height="45" fill="white"/>
</clipPath>
</defs>
</svg>
