<svg width="45" height="37" viewBox="0 0 45 37" fill="none" xmlns="http://www.w3.org/2000/svg">
<path d="M44.2003 4.51039C43.6172 3.82115 42.8007 3.40016 41.901 3.32501L10.2115 0.678988C9.31171 0.603842 8.43685 0.883596 7.74753 1.46657C7.06102 2.04726 6.64064 2.85963 6.56312 3.75497L5.92556 9.73643H3.37982C1.5162 9.73643 0 11.2526 0 13.1163V32.9533C0 34.8169 1.5162 36.3331 3.37982 36.3331H35.1797C37.0434 36.3331 38.5596 34.8169 38.5596 32.9533V29.7353L39.688 29.8296C39.7832 29.8375 39.8778 29.8414 39.9717 29.8414C41.7091 29.8414 43.1902 28.5047 43.3374 26.7427L44.988 6.97448C45.0631 6.07475 44.7833 5.19971 44.2003 4.51039ZM3.37982 11.4942H35.1797C36.074 11.4942 36.8018 12.2219 36.8018 13.1163V14.9238H1.75781V13.1163C1.75781 12.2219 2.48545 11.4942 3.37982 11.4942ZM1.75781 16.6816H36.8018V20.3281H1.75781V16.6816ZM35.1797 34.5753H3.37982C2.48545 34.5753 1.75781 33.8476 1.75781 32.9533V22.0859H36.8018V32.9533C36.8018 33.8476 36.074 34.5753 35.1797 34.5753ZM43.2363 6.82814L41.5856 26.5963C41.5112 27.4876 40.7254 28.1525 39.8342 28.0778L38.5596 27.9714V13.1163C38.5596 11.2526 37.0434 9.73643 35.1797 9.73643H7.69339L8.31205 3.93216C8.31275 3.92548 8.31337 3.91889 8.31389 3.91212C8.38834 3.02082 9.17372 2.35602 10.0653 2.43073L41.7548 5.07675C42.1866 5.11279 42.5785 5.31485 42.8583 5.64567C43.138 5.97649 43.2723 6.39634 43.2363 6.82814Z" fill="#222529"/>
</svg>
