<svg width="40" height="40" viewBox="0 0 40 40" fill="none" xmlns="http://www.w3.org/2000/svg">
<path d="M20 0C8.9701 0 0 8.9701 0 20C0 31.0299 8.9701 40 20 40C31.0299 40 40 31.0299 40 20C40 8.9701 31.0299 0 20 0ZM20 2.66667C29.5887 2.66667 37.3437 10.4113 37.3437 20C37.3437 29.5887 29.5887 37.3437 20 37.3437C10.4113 37.3437 2.66667 29.5887 2.66667 20C2.66667 10.4113 10.4113 2.66667 20 2.66667ZM19.9818 9.34115C19.6295 9.34735 19.294 9.4927 19.0486 9.74545C18.8032 9.99821 18.6677 10.3378 18.6719 10.6901V11.8125C16.519 12.2164 14.6771 13.6027 14.6771 16.0052C14.6771 17.6719 15.4284 19.0199 16.4375 19.8047C17.4466 20.5895 18.5859 20.9375 19.5859 21.2708C20.5859 21.6042 21.4492 21.9228 21.9401 22.3047C22.431 22.6865 22.6667 23.0078 22.6667 24.0078C22.6667 26.23 17.3438 26.23 17.3438 24.0078C17.3477 23.8302 17.3161 23.6536 17.2509 23.4884C17.1856 23.3232 17.0881 23.1727 16.9639 23.0457C16.8397 22.9187 16.6913 22.8178 16.5276 22.7489C16.3639 22.6801 16.188 22.6446 16.0104 22.6446C15.8328 22.6446 15.6569 22.6801 15.4932 22.7489C15.3295 22.8178 15.1812 22.9187 15.057 23.0457C14.9328 23.1727 14.8352 23.3232 14.77 23.4884C14.7047 23.6536 14.6731 23.8302 14.6771 24.0078C14.6771 26.4085 16.5206 27.7974 18.6719 28.2031V29.3203C18.6679 29.4979 18.6995 29.6745 18.7647 29.8397C18.83 30.0049 18.9276 30.1554 19.0518 30.2824C19.176 30.4094 19.3243 30.5103 19.488 30.5792C19.6517 30.6481 19.8276 30.6835 20.0052 30.6835C20.1828 30.6835 20.3587 30.6481 20.5224 30.5792C20.6861 30.5103 20.8344 30.4094 20.9586 30.2824C21.0828 30.1554 21.1804 30.0049 21.2457 29.8397C21.3109 29.6745 21.3425 29.4979 21.3385 29.3203V28.2031C23.4902 27.7976 25.3359 26.4088 25.3359 24.0078C25.3359 22.3411 24.582 20.9932 23.5729 20.2083C22.5638 19.4235 21.4245 19.0729 20.4245 18.7396C19.4245 18.4062 18.5612 18.0902 18.0703 17.7083C17.5794 17.3265 17.3438 17.0052 17.3438 16.0052C17.3438 13.783 22.6667 13.783 22.6667 16.0052C22.6667 16.3592 22.8073 16.6986 23.0576 16.9489C23.3079 17.1992 23.6473 17.3398 24.0013 17.3398C24.3553 17.3398 24.6947 17.1992 24.945 16.9489C25.1953 16.6986 25.3359 16.3592 25.3359 16.0052C25.3359 13.6063 23.4895 12.2214 21.3385 11.8151V10.6901C21.3406 10.5117 21.3069 10.3347 21.2394 10.1696C21.1718 10.0045 21.0719 9.85457 20.9453 9.72879C20.8188 9.603 20.6684 9.50388 20.5028 9.4373C20.3373 9.37071 20.1601 9.33802 19.9818 9.34115H19.9818Z" fill="#222529"/>
</svg>
