<svg width="45" height="45" viewBox="0 0 45 45" fill="none" xmlns="http://www.w3.org/2000/svg">
<circle cx="22" cy="23" r="18" fill="#F3F3F3"/>
<path d="M22 3C10.9701 3 2 11.9701 2 23C2 34.0299 10.9701 43 22 43C33.0299 43 42 34.0299 42 23C42 11.9701 33.0299 3 22 3ZM22 5.66667C31.5887 5.66667 39.3437 13.4113 39.3437 23C39.3437 32.5887 31.5887 40.3437 22 40.3437C12.4113 40.3437 4.66667 32.5887 4.66667 23C4.66667 13.4113 12.4113 5.66667 22 5.66667ZM21.9818 12.3411C21.6295 12.3473 21.294 12.4927 21.0486 12.7455C20.8032 12.9982 20.6677 13.3378 20.6719 13.6901V14.8125C18.519 15.2164 16.6771 16.6027 16.6771 19.0052C16.6771 20.6719 17.4284 22.0199 18.4375 22.8047C19.4466 23.5895 20.5859 23.9375 21.5859 24.2708C22.5859 24.6042 23.4492 24.9229 23.9401 25.3047C24.431 25.6865 24.6667 26.0078 24.6667 27.0078C24.6667 29.23 19.3438 29.23 19.3438 27.0078C19.3477 26.8302 19.3161 26.6536 19.2509 26.4884C19.1856 26.3232 19.0881 26.1727 18.9639 26.0457C18.8397 25.9187 18.6913 25.8178 18.5276 25.7489C18.3639 25.6801 18.188 25.6446 18.0104 25.6446C17.8328 25.6446 17.6569 25.6801 17.4932 25.7489C17.3295 25.8178 17.1812 25.9187 17.057 26.0457C16.9328 26.1727 16.8352 26.3232 16.77 26.4884C16.7047 26.6536 16.6731 26.8302 16.6771 27.0078C16.6771 29.4085 18.5206 30.7974 20.6719 31.2031V32.3203C20.6679 32.4979 20.6995 32.6745 20.7647 32.8397C20.83 33.0049 20.9276 33.1554 21.0518 33.2824C21.176 33.4094 21.3243 33.5103 21.488 33.5792C21.6517 33.6481 21.8276 33.6835 22.0052 33.6835C22.1828 33.6835 22.3587 33.6481 22.5224 33.5792C22.6861 33.5103 22.8344 33.4094 22.9586 33.2824C23.0829 33.1554 23.1804 33.0049 23.2457 32.8397C23.3109 32.6745 23.3425 32.4979 23.3385 32.3203V31.2031C25.4902 30.7976 27.3359 29.4088 27.3359 27.0078C27.3359 25.3411 26.582 23.9932 25.5729 23.2083C24.5638 22.4235 23.4245 22.0729 22.4245 21.7396C21.4245 21.4063 20.5612 21.0902 20.0703 20.7083C19.5794 20.3265 19.3438 20.0052 19.3438 19.0052C19.3438 16.783 24.6667 16.783 24.6667 19.0052C24.6667 19.3592 24.8073 19.6986 25.0576 19.9489C25.3079 20.1992 25.6473 20.3398 26.0013 20.3398C26.3553 20.3398 26.6947 20.1992 26.945 19.9489C27.1953 19.6986 27.3359 19.3592 27.3359 19.0052C27.3359 16.6063 25.4895 15.2214 23.3385 14.8151V13.6901C23.3406 13.5117 23.3069 13.3347 23.2394 13.1696C23.1718 13.0045 23.0719 12.8546 22.9453 12.7288C22.8188 12.603 22.6684 12.5039 22.5028 12.4373C22.3373 12.3707 22.1601 12.338 21.9818 12.3411Z" fill="#2D2D2D"/>
<circle cx="32" cy="14" r="3" fill="#FF9D9D"/>
<circle cx="11" cy="30" r="2" fill="#FF9D9D"/>
<path d="M21.9818 12.3411C21.6295 12.3474 21.294 12.4927 21.0486 12.7455C20.8032 12.9982 20.6677 13.3378 20.6719 13.6901V14.8125C18.519 15.2164 16.6771 16.6027 16.6771 19.0052C16.6771 20.6719 17.4284 22.0199 18.4375 22.8047C19.4466 23.5895 20.5859 23.9375 21.5859 24.2708C22.5859 24.6042 23.4492 24.9229 23.9401 25.3047C24.431 25.6865 24.6667 26.0078 24.6667 27.0078C24.6667 29.23 19.3438 29.23 19.3438 27.0078C19.3477 26.8302 19.3161 26.6536 19.2509 26.4884C19.1856 26.3232 19.0881 26.1727 18.9639 26.0457C18.8397 25.9187 18.6913 25.8178 18.5276 25.7489C18.3639 25.6801 18.188 25.6446 18.0104 25.6446C17.8328 25.6446 17.657 25.6801 17.4932 25.7489C17.3295 25.8178 17.1812 25.9187 17.057 26.0457C16.9328 26.1727 16.8352 26.3232 16.77 26.4884C16.7047 26.6536 16.6731 26.8302 16.6771 27.0078C16.6771 29.4085 18.5206 30.7974 20.6719 31.2031V32.3203C20.6679 32.4979 20.6995 32.6745 20.7648 32.8397C20.83 33.0049 20.9276 33.1554 21.0518 33.2824C21.176 33.4094 21.3243 33.5103 21.488 33.5792C21.6517 33.6481 21.8276 33.6836 22.0052 33.6836C22.1828 33.6836 22.3587 33.6481 22.5224 33.5792C22.6861 33.5103 22.8345 33.4094 22.9587 33.2824C23.0829 33.1554 23.1804 33.0049 23.2457 32.8397C23.3109 32.6745 23.3425 32.4979 23.3385 32.3203V31.2031C25.4902 30.7976 27.3359 29.4088 27.3359 27.0078C27.3359 25.3411 26.582 23.9932 25.5729 23.2083C24.5638 22.4235 23.4245 22.0729 22.4245 21.7396C21.4245 21.4063 20.5612 21.0902 20.0703 20.7083C19.5794 20.3265 19.3438 20.0052 19.3438 19.0052C19.3438 16.783 24.6667 16.783 24.6667 19.0052C24.6667 19.3592 24.8073 19.6986 25.0576 19.9489C25.3079 20.1992 25.6473 20.3398 26.0013 20.3398C26.3553 20.3398 26.6947 20.1992 26.945 19.9489C27.1953 19.6986 27.3359 19.3592 27.3359 19.0052C27.3359 16.6063 25.4895 15.2214 23.3385 14.8151V13.6901C23.3406 13.5117 23.3069 13.3347 23.2394 13.1696C23.1718 13.0045 23.0719 12.8546 22.9453 12.7288C22.8188 12.603 22.6684 12.5039 22.5029 12.4373C22.3373 12.3707 22.1602 12.338 21.9818 12.3411Z" fill="#0088CC"/>
</svg>
