<svg width="24" height="21" viewBox="0 0 24 21" fill="none" xmlns="http://www.w3.org/2000/svg">
<path d="M5.72017 0.831096L5.72243 0.830714C7.57849 0.515557 9.55088 1.1345 10.9068 2.49247L10.9076 2.49332L11.4701 3.05488L12.021 3.6049L12.5502 3.03385L13.0571 2.4867C14.4591 1.12825 16.3892 0.516397 18.28 0.831119C21.1477 1.309 23.25 3.79057 23.25 6.70067V6.97255C23.25 8.71056 22.5296 10.3723 21.2577 11.5564L21.2569 11.5571L12.7867 19.4649C12.5744 19.663 12.2934 19.7741 12 19.7741C11.7066 19.7741 11.4256 19.663 11.2133 19.4649L2.74258 11.5571L2.74217 11.5567C1.47156 10.3723 0.75 8.71025 0.75 6.97255V6.70067C0.75 3.79062 2.85318 1.30892 5.72017 0.831096Z" stroke="white" stroke-width="1.5"/>
</svg>
