<svg width="30" height="30" viewBox="0 0 30 30" fill="none" xmlns="http://www.w3.org/2000/svg">
<path d="M3 11.9725V11.7007C3 8.42411 5.36813 5.62942 8.59688 5.0913C10.6922 4.73552 12.9094 5.43208 14.4375 6.96255L15 7.52411L15.5203 6.96255C17.0906 5.43208 19.2656 4.73552 21.4031 5.0913C24.6328 5.62942 27 8.42411 27 11.7007V11.9725C27 13.9179 26.1937 15.7788 24.7687 17.1054L16.2984 25.0132C15.9469 25.3413 15.4828 25.5241 15 25.5241C14.5172 25.5241 14.0531 25.3413 13.7016 25.0132L5.23078 17.1054C3.80766 15.7788 3 13.9179 3 11.9725Z" fill="white"/>
<path d="M3 11.9725V11.7007C3 8.42411 5.36813 5.62942 8.59688 5.0913C10.6922 4.73552 12.9094 5.43208 14.4375 6.96255L15 7.52411L15.5203 6.96255C17.0906 5.43208 19.2656 4.73552 21.4031 5.0913C24.6328 5.62942 27 8.42411 27 11.7007V11.9725C27 13.9179 26.1937 15.7788 24.7687 17.1054L16.2984 25.0132C15.9469 25.3413 15.4828 25.5241 15 25.5241C14.5172 25.5241 14.0531 25.3413 13.7016 25.0132L5.23078 17.1054C3.80766 15.7788 3 13.9179 3 11.9725Z" stroke="white"/>
<circle cx="22" cy="24" r="1" fill="white"/>
<circle cx="2.5" cy="20.5" r="1.5" fill="white"/>
<circle cx="21" cy="10" r="2" fill="white"/>
</svg>
