<svg width="42" height="32" viewBox="0 0 42 32" fill="none" xmlns="http://www.w3.org/2000/svg">
<path fill-rule="evenodd" clip-rule="evenodd" d="M1.65926 0.139063C0.834779 0.432543 0.249943 1.10052 0.0714397 1.95249C0.00750669 2.25776 -0.0114516 5.69438 0.0063577 13.7104L0.0316355 25.0369L0.260613 25.5154C0.520038 26.0575 0.91767 26.4531 1.46369 26.7123C1.79254 26.8684 2.0193 26.8929 3.36017 26.917L4.88324 26.9444L4.97533 27.5927C5.09425 28.43 5.33627 29.0836 5.77724 29.7583L6.13129 30.3002H3.39309C1.44497 30.3002 0.592835 30.3293 0.439691 30.4009C-0.124463 30.6646 -0.141041 31.5706 0.412854 31.8645C0.753447 32.0452 41.2479 32.0452 41.5885 31.8645C41.9789 31.6573 42.1116 31.1657 41.8938 30.7335C41.7092 30.3672 41.4538 30.3002 40.2426 30.3002H39.1385L39.4246 29.8916C39.9607 29.126 40.3586 27.9519 40.3707 27.1001C40.3744 26.8353 40.418 26.7797 40.8001 26.5528C41.0341 26.4138 41.3465 26.1366 41.4943 25.9367C41.9871 25.2702 42.0199 25.0033 41.9935 21.8673L41.9697 19.0579L39.6307 14.2734C37.1354 9.16915 37.0538 9.03239 36.2691 8.63558C35.9022 8.44998 35.8398 8.44678 32.1454 8.42286L28.3943 8.39861L28.3701 5.13858C28.3472 2.02963 28.338 1.86078 28.1732 1.4953C27.9206 0.935038 27.5351 0.52703 27.0068 0.260834L26.5405 0.0258818L14.3119 0.00701836C2.7403 -0.0108347 2.06059 -0.00376075 1.65926 0.139063ZM26.3234 1.78803C26.4478 1.85405 26.5936 2.0074 26.6476 2.12883C26.7221 2.29658 26.7456 5.10153 26.7456 13.7986V25.2475L20.6109 25.2428L14.4761 25.238L14.1958 24.6322C13.8074 23.7925 12.9009 22.8637 12.055 22.4387C10.605 21.7101 9.07319 21.7101 7.62317 22.4387C6.77727 22.8637 5.8708 23.7925 5.48236 24.6322L5.20209 25.238L3.74919 25.2428C2.78814 25.2459 2.22341 25.2135 2.0811 25.1468C1.77547 25.004 1.63201 24.6609 1.63201 24.0727V23.5632H2.94129C4.36915 23.5632 4.60757 23.5076 4.79789 23.13C4.96728 22.7939 4.96728 19.2799 4.79789 18.9438C4.60757 18.5662 4.36915 18.5105 2.94129 18.5105H1.63201L1.63489 10.4051C1.638 1.70727 1.62249 2.02946 2.05139 1.78558C2.35514 1.61278 25.9977 1.61522 26.3234 1.78803ZM8.61705 5.15408C7.90558 5.55872 8.20325 6.72076 9.01837 6.72076C9.43422 6.72076 9.83908 6.30939 9.83908 5.88681C9.83908 5.25454 9.15814 4.84628 8.61705 5.15408ZM11.8999 5.15408C11.3498 5.46684 11.3679 6.35755 11.9296 6.62013C12.2382 6.76447 22.705 6.76447 23.0137 6.62013C23.2489 6.51015 23.4628 6.15705 23.4628 5.87864C23.4628 5.60023 23.2489 5.24713 23.0137 5.13715C22.6849 4.98338 12.1718 4.99938 11.8999 5.15408ZM15.1827 8.52257C14.6327 8.83533 14.6507 9.72605 15.2124 9.98862C15.5189 10.1319 22.7073 10.1319 23.0137 9.98862C23.2489 9.87864 23.4628 9.52554 23.4628 9.24713C23.4628 8.96873 23.2489 8.61562 23.0137 8.50564C22.6876 8.35314 15.4531 8.36871 15.1827 8.52257ZM35.7247 10.2666C35.8455 10.3641 36.091 10.7431 36.2702 11.1087L36.5959 11.7735H33.6443C30.4696 11.7735 30.3567 11.7875 30.1454 12.2068C29.9885 12.5181 29.9713 19.3843 30.1265 19.7339C30.3338 20.2006 30.2646 20.1947 35.5231 20.1947H40.3694V22.417C40.3694 24.542 40.362 24.6481 40.2 24.8381C40.1067 24.9475 40.0138 24.9971 39.9933 24.9484C39.7941 24.4737 39.2426 23.6991 38.7962 23.267C37.286 21.8049 35.1295 21.484 33.2292 22.4387C32.3833 22.8637 31.4768 23.7925 31.0884 24.6322L30.8081 25.238L29.5976 25.2428L28.387 25.2475V17.6684V10.0893H31.946C35.4403 10.0893 35.5091 10.0925 35.7247 10.2666ZM38.6459 15.9841L39.8774 18.5105H35.7736H31.6699V15.9841V13.4577H34.5421H37.4143L38.6459 15.9841ZM3.27343 21.0369V21.879H2.45272H1.63201V21.0369V20.1947H2.45272H3.27343V21.0369ZM11.1874 23.8849C11.9279 24.2405 12.4071 24.7241 12.7743 25.4866C13.064 26.0879 13.0809 26.1675 13.0809 26.9317C13.0809 27.6959 13.064 27.7755 12.7743 28.3768C12.4052 29.1433 11.93 29.6207 11.167 29.9916C10.6712 30.2326 10.5441 30.2581 9.83908 30.2581C9.13401 30.2581 9.00696 30.2326 8.51118 29.9916C7.74816 29.6207 7.27297 29.1433 6.90382 28.3768C6.61452 27.7762 6.59729 27.6953 6.59729 26.9361C6.59729 26.2077 6.62183 26.0786 6.85704 25.5692C7.1868 24.8549 7.65633 24.332 8.26874 23.9971C8.91521 23.6436 9.26893 23.5636 10.0237 23.6005C10.5162 23.6245 10.7786 23.6886 11.1874 23.8849ZM36.7935 23.8849C37.534 24.2405 38.0131 24.7241 38.3804 25.4866C38.67 26.0879 38.6869 26.1675 38.6869 26.9317C38.6869 27.6959 38.67 27.7755 38.3804 28.3768C38.0112 29.1433 37.536 29.6207 36.773 29.9916C36.2772 30.2326 36.1502 30.2581 35.4451 30.2581C34.7401 30.2581 34.613 30.2326 34.1172 29.9916C33.3542 29.6207 32.879 29.1433 32.5099 28.3768C32.2206 27.7762 32.2033 27.6953 32.2033 26.9361C32.2033 26.2077 32.2279 26.0786 32.4631 25.5692C32.7928 24.8549 33.2624 24.332 33.8748 23.9971C34.5213 23.6436 34.875 23.5636 35.6297 23.6005C36.1223 23.6245 36.3847 23.6886 36.7935 23.8849ZM9.2819 25.3377C8.89083 25.4604 8.38856 26.0118 8.27563 26.4422C8.07915 27.1908 8.37108 27.9777 8.99236 28.374C9.45786 28.671 10.2594 28.6588 10.7172 28.3479C11.2295 28 11.4395 27.5884 11.4395 26.9317C11.4395 26.2835 11.2299 25.8637 10.7406 25.5314C10.3886 25.2924 9.7122 25.2025 9.2819 25.3377ZM34.8879 25.3377C34.4969 25.4604 33.9946 26.0118 33.8817 26.4422C33.6852 27.1908 33.9771 27.9777 34.5984 28.374C34.8463 28.5322 35.0257 28.5739 35.4586 28.5739C35.9341 28.5739 36.051 28.5409 36.3541 28.3212C36.8289 27.9771 37.0458 27.527 37.0443 26.8894C37.0427 26.2855 36.8207 25.8533 36.3467 25.5314C35.9947 25.2924 35.3182 25.2025 34.8879 25.3377ZM30.5805 27.5864C30.7003 28.4299 30.9414 29.0823 31.3833 29.7583L31.7373 30.3002H22.6421H13.5469L13.9009 29.7583C14.3428 29.0823 14.5839 28.4299 14.7037 27.5864L14.7967 26.9317H22.6421H30.4875L30.5805 27.5864Z" fill="black"/>
</svg>
