<svg width="30" height="30" viewBox="0 0 30 30" fill="none" xmlns="http://www.w3.org/2000/svg">
<path d="M14.5 15C17.8141 15 20.5 12.3136 20.5 9C20.5 5.68641 17.8141 3 14.5 3C11.1859 3 8.5 5.68641 8.5 9C8.5 12.3136 11.1859 15 14.5 15ZM12.1234 17.25C7.63797 17.25 4 20.8875 4 25.3734C4 26.2706 4.7275 26.9986 5.62469 26.9986H23.3762C24.2734 27 25 26.2734 25 25.3734C25 20.8875 21.3625 17.25 16.8766 17.25H12.1234Z" fill="white"/>
<path d="M14.5 15C17.8141 15 20.5 12.3136 20.5 9C20.5 5.68641 17.8141 3 14.5 3C11.1859 3 8.5 5.68641 8.5 9C8.5 12.3136 11.1859 15 14.5 15ZM12.1234 17.25C7.63797 17.25 4 20.8875 4 25.3734C4 26.2706 4.7275 26.9986 5.62469 26.9986H23.3762C24.2734 27 25 26.2734 25 25.3734C25 20.8875 21.3625 17.25 16.8766 17.25H12.1234Z" stroke="white"/>
<circle cx="24" cy="4" r="2" fill="white"/>
<circle cx="19" cy="23" r="2" fill="white"/>
<circle cx="4" cy="10" r="1" fill="white"/>
</svg>
